<?xml version="1.0" encoding="utf-8"?>
<!-- Generator: Adobe Illustrator 19.1.0, SVG Export Plug-In . SVG Version: 6.00 Build 0)  -->
<svg version="1.1" id="Layer_1" xmlns="http://www.w3.org/2000/svg" xmlns:xlink="http://www.w3.org/1999/xlink" x="0px" y="0px"
	 viewBox="0 0 225 375" style="enable-background:new 0 0 225 375;" xml:space="preserve">
<style type="text/css">
	.st0{fill:#0A4362;stroke:#000000;stroke-miterlimit:10;}
	.st1{fill:#999999;}
	.st2{fill:#F26C4F;}
</style>
<rect class="st0" width="225" height="40.3"/>
<rect x="36.7" y="98.9" class="st1" width="151.5" height="85.2"/>
<rect x="36.7" y="58.3" class="st1" width="151.5" height="21.8"/>
<rect x="36.7" y="240.5" class="st2" width="74.4" height="26.5"/>
<rect x="113.9" y="240.5" class="st2" width="74.4" height="26.5"/>
<rect x="36.7" y="209.2" class="st1" width="151.5" height="7.6"/>
<polyline class="st1" points="188.3,205.7 36.7,205.7 36.7,198.2 188.3,198.2 "/>
<rect x="36.7" y="220.2" class="st1" width="151.5" height="7.6"/>
<rect x="36.7" y="290" class="st1" width="29.6" height="29.6"/>
<rect x="73.9" y="301" class="st1" width="114.3" height="7.6"/>
<polyline class="st1" points="188.3,297.6 73.9,297.6 73.9,290 188.3,290 "/>
<rect x="73.9" y="312.1" class="st1" width="114.3" height="7.6"/>
<rect x="36.7" y="8" class="st1" width="37.2" height="24.7"/>
<polyline class="st1" points="73.9,340.2 36.7,340.2 36.7,332.7 73.9,332.7 "/>
<polyline class="st1" points="132.5,340.2 95.3,340.2 95.3,332.7 132.5,332.7 "/>
<polyline class="st1" points="188.3,340.2 151.1,340.2 151.1,332.7 188.3,332.7 "/>
</svg>
